<svg width="28" height="14" viewBox="0 0 28 14" fill="none" xmlns="https://www.w3.org/2000/svg">
<path opacity="0.35" d="M4.02112 1.25237H21.0211C22.9541 1.25237 24.5211 2.81937 24.5211 4.75237V9.75237C24.5211 11.6854 22.9541 13.2524 21.0211 13.2524H4.02112C2.08812 13.2524 0.521118 11.6854 0.521118 9.75237V4.75237C0.521118 2.81937 2.08812 1.25237 4.02112 1.25237Z" stroke="black"/>
<path opacity="0.4" d="M26.0211 5.75237V9.97271C26.8702 9.61527 27.4223 8.78377 27.4223 7.86254C27.4223 6.94131 26.8702 6.1098 26.0211 5.75237Z" fill="black"/>
<path d="M2.02112 4.75237C2.02112 3.6478 2.91655 2.75237 4.02112 2.75237H21.0211C22.1257 2.75237 23.0211 3.6478 23.0211 4.75237V9.75237C23.0211 10.8569 22.1257 11.7524 21.0211 11.7524H4.02112C2.91655 11.7524 2.02112 10.8569 2.02112 9.75237V4.75237Z" fill="black"/>
</svg>
