<svg width="19" height="13" viewBox="0 0 19 13" fill="none" xmlns="https://www.w3.org/2000/svg">
<path d="M10.0211 3.75237C10.0211 3.20008 10.4688 2.75237 11.0211 2.75237H12.0211C12.5734 2.75237 13.0211 3.20008 13.0211 3.75237V11.7524C13.0211 12.3046 12.5734 12.7524 12.0211 12.7524H11.0211C10.4688 12.7524 10.0211 12.3046 10.0211 11.7524V3.75237Z" fill="black"/>
<path d="M15.0211 1.75236C15.0211 1.20008 15.4688 0.752365 16.0211 0.752365H17.0211C17.5734 0.752365 18.0211 1.20008 18.0211 1.75237V11.7524C18.0211 12.3046 17.5734 12.7524 17.0211 12.7524H16.0211C15.4688 12.7524 15.0211 12.3046 15.0211 11.7524V1.75236Z" fill="black"/>
<path d="M5.02112 7.25237C5.02112 6.70008 5.46883 6.25237 6.02112 6.25237H7.02112C7.5734 6.25237 8.02112 6.70008 8.02112 7.25237V11.7524C8.02112 12.3046 7.5734 12.7524 7.02112 12.7524H6.02112C5.46883 12.7524 5.02112 12.3046 5.02112 11.7524V7.25237Z" fill="black"/>
<path d="M0.0211182 9.75237C0.0211182 9.20008 0.468833 8.75237 1.02112 8.75237H2.02112C2.5734 8.75237 3.02112 9.20008 3.02112 9.75237V11.7524C3.02112 12.3046 2.5734 12.7524 2.02112 12.7524H1.02112C0.468833 12.7524 0.0211182 12.3046 0.0211182 11.7524V9.75237Z" fill="black"/>
</svg>
