<svg width="199" height="78" viewBox="0 0 199 78" fill="none" xmlns="http://www.w3.org/2000/svg">
<g filter="url(#filter0_i_224_330)">
<path d="M0 39C0 17.4609 17.4609 0 39 0H160C181.539 0 199 17.4609 199 39C199 60.5391 181.539 78 160 78H39C17.4609 78 0 60.5391 0 39Z" fill="#2463EB"/>
</g>
<path d="M39 0.5H160C181.263 0.5 198.5 17.737 198.5 39C198.5 60.263 181.263 77.5 160 77.5H39C17.737 77.5 0.5 60.263 0.5 39C0.5 17.737 17.737 0.5 39 0.5Z" stroke="#2463EB"/>
<defs>
<filter id="filter0_i_224_330" x="0" y="0" width="199" height="82" filterUnits="userSpaceOnUse" color-interpolation-filters="sRGB">
<feFlood flood-opacity="0" result="BackgroundImageFix"/>
<feBlend mode="normal" in="SourceGraphic" in2="BackgroundImageFix" result="shape"/>
<feColorMatrix in="SourceAlpha" type="matrix" values="0 0 0 0 0 0 0 0 0 0 0 0 0 0 0 0 0 0 127 0" result="hardAlpha"/>
<feOffset dy="4"/>
<feGaussianBlur stdDeviation="2"/>
<feComposite in2="hardAlpha" operator="arithmetic" k2="-1" k3="1"/>
<feColorMatrix type="matrix" values="0 0 0 0 0 0 0 0 0 0 0 0 0 0 0 0 0 0 0.25 0"/>
<feBlend mode="normal" in2="shape" result="effect1_innerShadow_224_330"/>
</filter>
</defs>
</svg>
