<svg width="18" height="13" viewBox="0 0 18 13" fill="none" xmlns="https://www.w3.org/2000/svg">
<path d="M6.13636 9.67111C7.55608 8.44555 9.63551 8.44568 11.0553 9.67111C11.1267 9.73705 11.1686 9.83063 11.1705 9.92892C11.1725 10.0272 11.1347 10.1218 11.066 10.1906L8.84241 12.4807C8.77731 12.5479 8.68893 12.5861 8.59632 12.5861C8.50361 12.5861 8.41442 12.548 8.34925 12.4807L6.12562 10.1906C6.05701 10.1218 6.01912 10.0271 6.02112 9.92892C6.02316 9.83063 6.06487 9.737 6.13636 9.67111ZM3.1305 6.93088C6.18958 4.02628 10.9269 4.02628 13.986 6.93088C14.055 6.99898 14.0944 7.09266 14.0953 7.19064C14.0962 7.28852 14.0584 7.38292 13.9908 7.45236L12.7057 8.77756C12.5732 8.91284 12.3591 8.91615 12.2233 8.78439C11.2188 7.85597 9.91235 7.34198 8.55726 7.34201C7.20294 7.34258 5.89709 7.85648 4.89319 8.78439C4.75732 8.91614 4.54321 8.91291 4.41077 8.77756L3.12562 7.45236C3.05786 7.383 3.0203 7.28858 3.02112 7.19064C3.02203 7.09268 3.0615 6.99897 3.1305 6.93088ZM0.128545 4.19455C4.8204 -0.395061 12.2218 -0.394998 16.9137 4.19455C16.9816 4.26274 17.0206 4.3561 17.0211 4.45334C17.0216 4.55043 16.9837 4.64421 16.9166 4.7131L15.6305 6.0383C15.498 6.17428 15.2827 6.17598 15.1481 6.0422C13.3605 4.30744 10.9877 3.34017 8.52112 3.34006C6.05449 3.34017 3.6819 4.30743 1.89417 6.0422C1.75962 6.1761 1.54416 6.17445 1.41175 6.0383L0.124639 4.7131C0.0576692 4.64417 0.0206239 4.5504 0.0211231 4.45334C0.0217499 4.3561 0.0605794 4.26268 0.128545 4.19455Z" fill="black"/>
</svg>
